<svg xmlns="http://www.w3.org/2000/svg" width="1440" height="500"><path d="M631,290L844,335L880,-85Z" fill="#fd9d2d" stroke="#fd9d2d" stroke-width="1.51"/><path d="M880,-85L462,-48L631,290Z" fill="#feb03e" stroke="#feb03e" stroke-width="1.51"/><path d="M1300,227L1214,-101L880,-85Z" fill="#f49a34" stroke="#f49a34" stroke-width="1.51"/><path d="M844,335L1300,227L880,-85Z" fill="#f89229" stroke="#f89229" stroke-width="1.51"/><path d="M631,290L458,550L844,335Z" fill="#f99127" stroke="#f99127" stroke-width="1.51"/><path d="M844,335L978,659L1300,227Z" fill="#f07919" stroke="#f07919" stroke-width="1.51"/><path d="M137,159L458,550L631,290Z" fill="#fca436" stroke="#fca436" stroke-width="1.51"/><path d="M458,550L978,659L844,335Z" fill="#f1801c" stroke="#f1801c" stroke-width="1.51"/><path d="M817,-527L561,-465L880,-85Z" fill="#ffc36e" stroke="#ffc36e" stroke-width="1.51"/><path d="M880,-85L561,-465L462,-48Z" fill="#ffc364" stroke="#ffc364" stroke-width="1.51"/><path d="M462,-48L137,159L631,290Z" fill="#ffb744" stroke="#ffb744" stroke-width="1.51"/><path d="M111,-128L137,159L462,-48Z" fill="#ffcb60" stroke="#ffcb60" stroke-width="1.51"/><path d="M1224,-517L817,-527L880,-85Z" fill="#feb869" stroke="#feb869" stroke-width="1.51"/><path d="M266,-429L111,-128L462,-48Z" fill="#ffd778" stroke="#ffd778" stroke-width="1.51"/><path d="M-453,-555L266,-429L561,-465Z" fill="#ffe8a1" stroke="#ffe8a1" stroke-width="1.51"/><path d="M561,-465L266,-429L462,-48Z" fill="#ffd479" stroke="#ffd479" stroke-width="1.51"/><path d="M978,659L1299,692L1300,227Z" fill="#e3670f" stroke="#e3670f" stroke-width="1.51"/><path d="M1214,-101L1224,-517L880,-85Z" fill="#f9ab58" stroke="#f9ab58" stroke-width="1.51"/><path d="M1596,-388L1224,-517L1214,-101Z" fill="#f0a45c" stroke="#f0a45c" stroke-width="1.51"/><path d="M978,659L1263,906L1299,692Z" fill="#d15608" stroke="#d15608" stroke-width="1.51"/><path d="M458,550L926,889L978,659Z" fill="#e46f14" stroke="#e46f14" stroke-width="1.51"/><path d="M137,159L150,626L458,550Z" fill="#f8a33f" stroke="#f8a33f" stroke-width="1.51"/><path d="M458,550L508,1017L926,889Z" fill="#d8721b" stroke="#d8721b" stroke-width="1.51"/><path d="M-143,339L150,626L137,159Z" fill="#fcb255" stroke="#fcb255" stroke-width="1.51"/><path d="M1300,227L1596,-61L1214,-101Z" fill="#ea8d2d" stroke="#ea8d2d" stroke-width="1.51"/><path d="M1699,261L1596,-61L1300,227Z" fill="#e07b20" stroke="#e07b20" stroke-width="1.51"/><path d="M1680,586L1699,261L1300,227Z" fill="#d86511" stroke="#d86511" stroke-width="1.51"/><path d="M926,889L1263,906L978,659Z" fill="#cf590b" stroke="#cf590b" stroke-width="1.51"/><path d="M1680,586L1300,227L1299,692Z" fill="#da5d0a" stroke="#da5d0a" stroke-width="1.51"/><path d="M150,626L508,1017L458,550Z" fill="#e3882a" stroke="#e3882a" stroke-width="1.51"/><path d="M926,889L508,1017L1263,906Z" fill="#c55c10" stroke="#c55c10" stroke-width="1.51"/><path d="M150,626L124,987L508,1017Z" fill="#d38433" stroke="#d38433" stroke-width="1.51"/><path d="M-199,-145L-143,339L137,159Z" fill="#ffcd6e" stroke="#ffcd6e" stroke-width="1.51"/><path d="M-199,-145L137,159L111,-128Z" fill="#ffd778" stroke="#ffd778" stroke-width="1.51"/><path d="M2023,-194L1596,-388L1596,-61Z" fill="#d48e4c" stroke="#d48e4c" stroke-width="1.51"/><path d="M1596,-61L1596,-388L1214,-101Z" fill="#e8974a" stroke="#e8974a" stroke-width="1.51"/><path d="M-176,-383L-199,-145L111,-128Z" fill="#ffe699" stroke="#ffe699" stroke-width="1.51"/><path d="M1590,911L1680,586L1299,692Z" fill="#c24703" stroke="#c24703" stroke-width="1.51"/><path d="M266,-429L-176,-383L111,-128Z" fill="#ffe596" stroke="#ffe596" stroke-width="1.51"/><path d="M-453,-555L-176,-383L266,-429Z" fill="#fff1b1" stroke="#fff1b1" stroke-width="1.51"/><path d="M-187,992L124,987L150,626Z" fill="#d68d48" stroke="#d68d48" stroke-width="1.51"/><path d="M-143,339L-201,596L150,626Z" fill="#f7a958" stroke="#f7a958" stroke-width="1.51"/><path d="M-594,183L-201,596L-143,339Z" fill="#ffbc6d" stroke="#ffbc6d" stroke-width="1.51"/><path d="M1263,906L1590,911L1299,692Z" fill="#bf4704" stroke="#bf4704" stroke-width="1.51"/><path d="M1893,970L1590,911L1263,906Z" fill="#a83b04" stroke="#a83b04" stroke-width="1.51"/><path d="M1699,261L2023,-194L1596,-61Z" fill="#cf7f2c" stroke="#cf7f2c" stroke-width="1.51"/><path d="M1955,585L2033,263L1699,261Z" fill="#bf5910" stroke="#bf5910" stroke-width="1.51"/><path d="M1955,585L1699,261L1680,586Z" fill="#c3520b" stroke="#c3520b" stroke-width="1.51"/><path d="M1893,970L1955,585L1680,586Z" fill="#ae3e04" stroke="#ae3e04" stroke-width="1.51"/><path d="M2033,263L2023,-194L1699,261Z" fill="#c37122" stroke="#c37122" stroke-width="1.51"/><path d="M-199,-145L-507,-66L-143,339Z" fill="#ffda81" stroke="#ffda81" stroke-width="1.51"/><path d="M-176,-383L-507,-66L-199,-145Z" fill="#ffeba2" stroke="#ffeba2" stroke-width="1.51"/><path d="M-201,596L-187,992L150,626Z" fill="#e69951" stroke="#e69951" stroke-width="1.51"/><path d="M124,987L-187,992L508,1017Z" fill="#c5813c" stroke="#c5813c" stroke-width="1.51"/><path d="M-494,903L-187,992L-201,596Z" fill="#dd995c" stroke="#dd995c" stroke-width="1.51"/><path d="M-507,-66L-594,183L-143,339Z" fill="#ffd280" stroke="#ffd280" stroke-width="1.51"/><path d="M1596,-388L2037,-496L1224,-517Z" fill="#e09c64" stroke="#e09c64" stroke-width="1.51"/><path d="M2023,-194L2037,-496L1596,-388Z" fill="#cb8f57" stroke="#cb8f57" stroke-width="1.51"/><path d="M2033,263L2037,-496L2023,-194Z" fill="#bc8041" stroke="#bc8041" stroke-width="1.51"/><path d="M1590,911L1893,970L1680,586Z" fill="#aa3c04" stroke="#aa3c04" stroke-width="1.51"/><path d="M1955,585L1893,970L2033,263Z" fill="#ac4308" stroke="#ac4308" stroke-width="1.51"/><path d="M508,1017L1893,970L1263,906Z" fill="#b74908" stroke="#b74908" stroke-width="1.51"/><path d="M-507,-66L-453,-555L-594,183Z" fill="#ffeba8" stroke="#ffeba8" stroke-width="1.51"/><path d="M-176,-383L-453,-555L-507,-66Z" fill="#fff3b4" stroke="#fff3b4" stroke-width="1.51"/><path d="M817,-527L-453,-555L561,-465Z" fill="#ffe194" stroke="#ffe194" stroke-width="1.51"/><path d="M-594,183L-585,695L-201,596Z" fill="#fcb470" stroke="#fcb470" stroke-width="1.51"/><path d="M-585,695L-494,903L-201,596Z" fill="#eaa265" stroke="#eaa265" stroke-width="1.51"/></svg>